<svg width="18" height="19" viewBox="0 0 18 19" fill="none" xmlns="http://www.w3.org/2000/svg">
<path d="M7 3.17578V5.17578H2V16.1758H13V11.1758H15V17.1758C15 17.441 14.8946 17.6954 14.7071 17.8829C14.5196 18.0704 14.2652 18.1758 14 18.1758H1C0.73478 18.1758 0.48043 18.0704 0.29289 17.8829C0.10536 17.6954 0 17.441 0 17.1758V4.17578C0 3.91056 0.10536 3.65621 0.29289 3.46867C0.48043 3.28114 0.73478 3.17578 1 3.17578H7ZM18 0.175781V8.17578H16V3.58878L8.207 11.3828L6.793 9.96878L14.585 2.17578H10V0.175781H18Z" fill="black"/>
</svg>
